<svg width="180" height="180" viewBox="0 0 180 180" fill="none" xmlns="http://www.w3.org/2000/svg">
<path d="M106.614 62.1309C107.815 60.5555 110.185 60.5555 111.386 62.1309L162.486 129.182C163.99 131.156 162.582 134 160.099 134H57.9005C55.4177 134 54.0095 131.156 55.5145 129.182L106.614 62.1309Z" fill="white"/>
<path d="M72.3861 116.869C71.1854 118.445 68.8146 118.445 67.6139 116.869L16.5145 49.8184C15.0095 47.8437 16.4177 45 18.9005 45H121.099C123.582 45 124.99 47.8437 123.486 49.8184L72.3861 116.869Z" fill="black"/>
<path d="M71.7942 108.962C71.394 109.485 70.606 109.485 70.2058 108.962L26.3304 51.6076C25.8271 50.9496 26.2963 50 27.1247 50H114.875C115.704 50 116.173 50.9496 115.67 51.6076L71.7942 108.962Z" fill="white"/>
<path d="M107.206 70.0382C107.606 69.515 108.394 69.515 108.794 70.0382L152.67 127.392C153.173 128.05 152.704 129 151.875 129H64.1247C63.2963 129 62.8271 128.05 63.3304 127.392L107.206 70.0382Z" fill="black"/>
<rect x="61.957" y="120.724" width="23.3576" height="5.13353" transform="rotate(-52.7081 61.957 120.724)" fill="white"/>
<circle cx="18" cy="18" r="18" transform="matrix(1 0 0 -1 72 109)" fill="#FF0101"/>
</svg>
